<svg xmlns="http://www.w3.org/2000/svg" xmlns:xlink="http://www.w3.org/1999/xlink" version="1.1" id="Layer_1" x="0px" y="0px" viewBox="0 0 400 113.2" style="enable-background:new 0 0 400 113.2;" xml:space="preserve"><script xmlns="" id="tinyhippos-injected"/>
<style type="text/css">
	.st0{fill:#FBAF19;}
</style>
<g>
	<path class="st0" d="M110.9,87.7c5.6,4.4,20.7,2.5,22.4,2.3c0.1,0,4.6-0.2,8.6-4.3c0.4,0.8,0.9,1.5,1.6,2.2c2.3,2.3,5.9,3,10.6,2.3   l2.5-0.2c0.4,0,0.8,0.1,1.1,0.2c0.9,0.4,2.1,0.6,3.5,0.6c6.3,0,10.9-3.1,14-6.9c0.7,2.4,2.2,4.5,5.2,5.4c3.5,1,6.4,0.9,8.5-0.1   c0.4,1.2,1,2.3,1.7,3.3c2.6,3.7,8.3,8.1,20.8,8.1c14.5,0,23.3-7.8,27.2-12.3c0.5,0.7,0.9,1.4,1.4,2.1c5.5,7.1,14.2,11.1,24.6,11.1   c13.3,0,22.6-8.9,28.1-16.8c0.6,1.4,1.5,2.9,3,4c3.5,2.6,8.7,2.5,15.5-0.3l0.9-0.5c0.6,0.5,1.4,0.9,2.2,1.2c4.7,2,11,1.1,14.7-2.1   c0.4-0.4,0.9-0.9,1.4-1.4c0.3,0.5,0.7,0.9,1.2,1.3c2.8,2.5,6.5,2.3,7,2.3c0.1,0,2.9-0.2,6-2.8c0.8,1.8,2.5,3.3,5.1,4.2   c4.6,1.7,12.2,1.9,17-0.7c2.8-1.5,5-4.2,6.7-7.1h12.4c3.8,0,6.9-1.2,9.3-3.7c4.2-4.3,4.4-11.1,4.4-12.7c0-0.2,0.6-32.8,0.6-32.8   c0-10.4-8.4-18.9-18.8-18.9H201.4c-1.2,0-2.2,1-2.2,2.2c0,1.2,1,2.2,2.2,2.2h179.8c8,0,14.4,6.5,14.4,14.4c0,0-0.6,32.7-0.6,32.8   c0,1.1-0.2,6.6-3.2,9.8c-1.5,1.6-3.5,2.3-6.1,2.3h-10.3c1.9-4.5,2.8-8.9,3.2-11c0.3-1.7,0.3-3.4-0.4-4.9c-0.3-0.9-0.9-1.8-1.7-2.7   c-2.3-2.5-6-3.8-11.1-3.8c-3.2,0-5.7,0.6-7.7,1.3c3.3-9.1,6.7-18.5,8.5-23.7c0.5-1.4-0.5-2.9-2.1-2.9c-0.9,0-1.7,0.6-2,1.4   c-3.7,10.3-13.6,38-16.6,44.9c-3.1,7.1-7.3,7.6-7.5,7.6c0,0-2.3,0.1-3.7-1.1c-0.7-0.6-1.4-1.8-1.1-2.6c0.3-0.8,5.3-12.9,7.8-18.9   c0.6-1.4-0.5-3-2-3c-0.9,0-1.7,0.5-2,1.3L329.8,78l-0.9,1.9c-1.3,2.3-2.2,3.3-2.7,3.8c-2.5,2.1-7,2.7-10.2,1.4   c-1.1-0.5-2.4-1.4-2.5-2.9c-0.2-3.4,3.4-12.8,6.5-19.9c0.6-1.4-0.4-3.1-2-3.1c-0.9,0-1.6,0.5-2,1.3c-2.7,6-7.2,17-6.9,21.9   c0,0.7,0.2,1.3,0.4,1.9l-0.2,0.1c-5,2-8.9,2.4-11,0.7c-1.1-0.8-1.6-1.9-1.9-2.9c-0.4-1.3-0.3-2.7,0.3-3.9c0.4-0.9,0.8-2,0.8-2   l16.9-42.5c0.6-1.4-0.5-3-2-3c-0.9,0-1.7,0.5-2,1.4l-16.9,42.6c0,0-0.5,1.1-0.7,1.7c-0.1,0.3-0.3,0.6-0.5,0.9   c-4.3,7.6-13.4,19.7-27.6,19.7c-11.5,0-17.9-5.1-21.1-9.4c-4.6-6-6.2-14.2-4.1-21.8c3.4-12.7,16.3-38.5,34.7-36.7   c13.7,1.3,16.6,14.8,17.2,20.2c0.1,1.1,1.1,1.9,2.2,1.9c1.3,0,2.3-1.1,2.2-2.4c-0.9-8.9-6.1-22.6-21.1-24   c-20.4-2-35,23.4-39.4,39.9c-1.7,6.5-1.2,13.3,1.3,19.3c-2.5,3.3-10.4,12.1-25,12.1c-8.4,0-14.4-2.2-17.3-6.2   c-2.2-3.1-2.5-7.4-0.9-12l16.2-44.2c0.5-1.4-0.5-2.9-2-2.9c-0.9,0-1.7,0.6-2,1.4l-16.2,44.2c-1,2.7-1.4,5.4-1.2,7.9   c-0.1,0.2-0.2,0.6-0.7,0.8c-0.6,0.4-2.2,0.9-5.7-0.1c-3.8-1.1-2.2-7.9-2.2-8l0.2-1c0.3-0.8,0.5-1.5,0.6-2.1l4.2-12.4   c0.4-1.2-0.3-2.4-1.4-2.8c-0.5-0.2-13-3.8-21.3,6.3c-5.3,6.5-9.7,15.3-8.1,20.9l-0.1,0c-3.4,0.5-5.8,0.2-7.1-1   c-0.9-0.9-1.1-2.1-1.2-2.9c0-0.5,0-1,0.2-1.5c0.1-0.3,0.2-0.5,0.3-0.8l7.8-19.2c0.5-1.1,0-2.5-1.2-2.9c-1.2-0.4-2.4,0.1-2.8,1.2   L141.8,78c-3.1,7.2-8.7,7.6-9,7.6c-5.9,0.8-18.5,1-19.9-2c-1.4-3,4.2-14.1,8.9-18.5l0.8-0.7c1.9-1.6,3.8-2.7,5.5-3.1   c4.7-0.8,6.3,0.2,6.8,0.7c0.4,0.4,0.6,1,0.5,1.4c-0.2,0.5-1.4,3.6-2.4,6c-0.5,1.1,0,2.5,1.2,2.9c1.2,0.4,2.4-0.1,2.8-1.2l2.6-6.4   c0.2-0.7,0.7-3.3-1.5-5.6c-2.1-2.2-5.7-2.9-10.8-2c-2.3,0.5-4.7,1.9-7.1,3.8c-0.4,0.3-0.9,0.7-1.4,0.9c-4,1.6-7.8,0.8-10.1,0   c-1-0.3-1.9-1-2.6-1.7c-1.7-1.7-4.7-3.1-10.1-3.1c-10.3,0-12.7,5-13.6,6.7c-2,3.5-7.5,14-7.5,19.9c0,0.8,0.1,1.5,0.3,2.1   c0.1,0.2,0.2,0.3,0.3,0.5c-2.3,0.1-4-0.3-5-1.2c-0.4-0.4-0.6-0.8-0.8-1.3c0.7-7.9-5.8-14.3-13.5-17.5c-3.6-1.5-7.2-1.9-10.8-2.2   c-4.3-0.4-8.3-0.9-11.5-3.2c-6.3-4.7-6.8-13.6-1.2-21.1c5-6.7,12.7-10.5,21-10.3l1.4,0.1c17,1.3,20.1,13.5,20.6,19.2   c0.1,1.2,1.2,2.1,2.4,1.9c1.2-0.1,2-1.3,1.9-2.5c-0.7-7.1-4.7-21.5-24.5-23l-1.6-0.1C44,24.6,35,29,29.2,36.8   c-7,9.4-6.1,21.1,2.1,27.2c4.1,3.1,9,3.6,13.7,4.1c3.4,0.3,6.6,0.7,9.6,1.9c1.2,0.5,9.2,4.1,10.7,10.4c0,0,0.4,1.9,0.1,3.4   c-0.1,0.8-0.3,1.6-0.7,2.5c-3.8,9.3-16.8,13-24.6,12.1c-5.7-0.7-10.2-4.1-14.6-7.4l-2.6-2c-3.2-2.5-7.2-5.5-11.5-5.3   c-2.4,0.1-5.1,1.4-7.1,3.3c0,0-4,3-4.3,9.3c-0.2,3.4,1.6,7.5,4.8,10.9c3.7,4,8.7,6.1,13.9,6.1h359.9c10.4,0,18.8-8.4,18.8-18.8   v-4.9c0-1.2-1-2.2-2.2-2.2c-1.2,0-2.2,1-2.2,2.2v4.9c0,8-6.5,14.4-14.4,14.4H18.7c-5.4,0-9-3-10.7-4.8c-2.6-2.8-3.7-5.8-3.6-7.6   c0.2-4.1,2.7-6.1,2.8-6.2c1.4-1.3,3.2-2.2,4.5-2.2c2.7-0.2,5.9,2.4,8.6,4.4l2.6,2c4.6,3.5,9.8,7.5,16.7,8.3   c8.7,1,23.6-2.8,28.8-14.1c2.3,1.7,5.6,2.2,9.8,1.6l1.4-0.3c0.3,0.1,0.6,0.3,0.9,0.4c4.4,1.6,10.3,1.1,14.6-1.3   c6.1-3.4,11.5-18.9,12.9-23.1c1.7,0.5,4,1,6.5,0.9c-3.5,4.8-6,10.7-6,16.4C108.5,85.1,109.5,86.6,110.9,87.7z M349.7,78.9   c1.1-2.6,3.1-7.8,5.4-14c0.1-0.4,0.3-0.7,0.6-1c1-1.2,3.9-3.4,9.9-3.4c3.7,0,6.5,0.8,7.9,2.4c0.1,0.1,0.2,0.3,0.3,0.4   c0.7,1,0.9,2.2,0.7,3.4c-0.9,5-4.1,16.3-9.9,19.5c-3.2,1.8-9.3,2-13.4,0.5c-2.8-1.1-3.6-3.7-3.6-3.7   C348.3,81.7,349.1,80.4,349.7,78.9z M165.1,67.8c4-4.9,9.4-5.6,13-5.4c0.7,0,1.2,0.8,1,1.5c-1.2,3.4-3.6,10.8-3.6,10.8   c-1.4,3.8-5.3,11.8-14.3,11.8c-2.5,0-3-1-3.2-1.4C156.6,82.1,159.8,74.3,165.1,67.8z M103.6,65.3c-2.4,7.2-7,18-10.6,20   c-3.3,1.8-7.8,2.2-11,1c-1-0.4-2.2-1.1-2.7-2.2c-0.8-2.2,2.9-11.4,6.9-18.6c0,0,1.8-4.3,9.8-4.3c4.1,0,6.1,1,7.1,1.9   C103.7,63.7,103.9,64.5,103.6,65.3z M2.3,76.6L2.2,33.4c0-10.4,8.4-18.8,18.8-18.8h112.6c1.2,0,2.2,1,2.2,2.2c0,1.2-1,2.2-2.2,2.2   H21c-8,0-14.4,6.5-14.4,14.4l0.1,43.1c0,1.2-1,2.2-2.2,2.2C3.3,78.8,2.3,77.8,2.3,76.6z M145.4,44.5l13.2-6.9l0.2-0.1   c0.2-0.1,0.8-0.4,1.8,0.7l6.8,7c0.6,0.6,1.6,1.2,2.8,0.8c1.9-0.7,2.1-3.2,2.2-4.2l1.1-11.6c0-0.1,0.2-1.2,2.2-2.3l14.5-8   c0.9-0.5,2.9-1.6,2.4-3.5c-0.2-0.7-0.9-1.9-3.3-1.8l-13.5,0c-0.4,0-0.8-0.4-0.7-0.8l1.1-10.3c0.1-1.6-0.5-2.8-1.6-3.2   c-1.8-0.7-3.2,1.2-3.7,1.9l-8.6,11c-0.1,0.1-1.1,1.4-2.4,1.4h-14.4c-0.6,0-2.2,0.6-2.7,2.2c-0.3,0.8-0.3,2.1,1.1,3.6   c0,0,7,7.5,7.1,7.6c0.1,0.1,0.4,0.4-0.6,1.7l-9,12c-1.4,1.7-0.7,2.9-0.3,3.3C142.2,46.3,144.2,45.2,145.4,44.5z M148.2,38.5   c2.4-3.2,5-6.7,5-6.7c1-1.3,1.3-2.5,1.3-3.6c0-1.3-0.5-2.3-1-2.8c0,0-4.7-5.1-6.4-6.9c-0.1-0.1,0-0.3,0.1-0.3h12.5   c3.2,0,5.2-2.6,5.4-2.9c0,0.1,3.9-5,6.5-8.2c0.1-0.1,0.3,0,0.3,0.1c-0.3,3-0.7,6.5-0.7,6.5c0,0.2,0,0.4,0,0.6   c0,1.2,0.5,2.1,0.9,2.6c1.2,1.4,3.1,1.4,3.4,1.4h9.1c0.2,0,0.2,0.2,0.1,0.3c-3.9,2.2-10.8,6-10.8,6c-4.1,2.1-4.2,5.1-4.2,5.4   c0-0.2-0.8,8.7-1,10.9c0,0.1-0.2,0.2-0.3,0.1c-2-2.1-5.2-5.3-5.2-5.3c-2.6-2.7-5.3-2.1-6.6-1.2c-0.4,0.2-4.7,2.4-8.3,4.3   C148.3,38.8,148.1,38.6,148.2,38.5z"/>
</g>
</svg>