<?xml version="1.0" encoding="UTF-8"?>
<svg version="1.1" xmlns="http://www.w3.org/2000/svg" xmlns:xlink="http://www.w3.org/1999/xlink" width="130px" height="20px">
	<path fill="#FFFFFF" d="M43.72,3.789c0,0.3-0.096,0.543-0.288,0.729s-0.438,0.279-0.738,0.279c-0.288,0-0.525-0.096-0.711-0.288   c-0.186-0.192-0.279-0.432-0.279-0.72c0-0.288,0.096-0.528,0.288-0.72c0.192-0.192,0.432-0.288,0.72-0.288   c0.3,0,0.543,0.093,0.729,0.279S43.72,3.489,43.72,3.789z M43.503,15.111h-1.566V6.399h1.566V15.111z"/>
	<path fill="#FFFFFF" d="M54.034,4.293h-3.618v10.818H48.85V4.293h-3.6V2.979h8.784V4.293z"/>
	<path fill="#FFFFFF" d="M61.518,15.111h-1.386l-0.09-1.386h-0.054c-0.6,1.044-1.536,1.566-2.808,1.566   c-0.816,0-1.476-0.252-1.98-0.756c-0.636-0.648-0.954-1.649-0.954-3.006v-5.13h1.566v4.842c0,1.848,0.63,2.772,1.89,2.772   c0.479,0,0.918-0.156,1.314-0.468c0.335-0.264,0.576-0.588,0.72-0.972c0.096-0.24,0.144-0.51,0.144-0.81V6.399h1.566v6.336   C61.446,13.515,61.47,14.307,61.518,15.111z"/>
	<path fill="#FFFFFF" d="M71.473,15.111h-1.566v-5.058c0-1.704-0.654-2.556-1.962-2.556c-0.624,0-1.143,0.237-1.557,0.711   s-0.621,1.023-0.621,1.647v5.256h-1.566V8.757c0-0.72-0.024-1.506-0.072-2.358h1.386l0.09,1.404h0.036   c0.24-0.444,0.588-0.81,1.044-1.098c0.528-0.324,1.122-0.486,1.782-0.486c0.768,0,1.416,0.24,1.944,0.72   c0.708,0.648,1.062,1.626,1.062,2.934V15.111z"/>
	<path fill="#FFFFFF" d="M81.145,10.251c0,0.312-0.018,0.57-0.054,0.774h-5.976c0.024,1.02,0.324,1.794,0.9,2.322   c0.504,0.468,1.182,0.702,2.034,0.702c0.864,0,1.644-0.144,2.34-0.432l0.27,1.116c-0.78,0.348-1.728,0.522-2.844,0.522   c-1.296,0-2.319-0.396-3.069-1.188c-0.75-0.792-1.125-1.854-1.125-3.186c0-1.356,0.363-2.475,1.089-3.357   c0.726-0.882,1.701-1.323,2.925-1.323c1.235,0,2.166,0.474,2.79,1.422C80.905,8.355,81.145,9.231,81.145,10.251z M79.633,9.891   c0.012-0.66-0.126-1.218-0.414-1.674c-0.373-0.588-0.942-0.882-1.71-0.882c-0.72,0-1.296,0.288-1.728,0.864   c-0.349,0.468-0.564,1.032-0.648,1.692H79.633z"/>
	<path fill="#FFFFFF" d="M88.292,12.681c0,0.78-0.288,1.407-0.864,1.881s-1.362,0.711-2.358,0.711   c-0.924,0-1.722-0.192-2.394-0.576l0.378-1.188c0.648,0.408,1.332,0.612,2.052,0.612c1.116,0,1.674-0.432,1.674-1.296   c0-0.372-0.12-0.678-0.36-0.918c-0.24-0.24-0.648-0.468-1.224-0.684c-1.524-0.576-2.286-1.397-2.286-2.466   c0-0.72,0.273-1.323,0.819-1.809c0.546-0.486,1.263-0.729,2.151-0.729c0.828,0,1.53,0.174,2.106,0.522l-0.396,1.152   c-0.528-0.336-1.11-0.504-1.746-0.504c-0.444,0-0.792,0.111-1.044,0.333c-0.252,0.222-0.378,0.507-0.378,0.855   c0,0.336,0.132,0.612,0.396,0.828c0.216,0.204,0.624,0.42,1.224,0.648C87.542,10.641,88.292,11.517,88.292,12.681z"/>
</svg>