<?xml version="1.0" encoding="UTF-8"?>
<svg version="1.1" xmlns="http://www.w3.org/2000/svg" xmlns:xlink="http://www.w3.org/1999/xlink" width="130px" height="20px">
	<path fill="#FFFFFF" d="M54.062,11.799c0,0.996-0.348,1.812-1.044,2.448c-0.756,0.684-1.806,1.026-3.15,1.026   c-1.26,0-2.268-0.252-3.024-0.756l0.396-1.296c0.816,0.516,1.728,0.774,2.736,0.774c0.78,0,1.392-0.189,1.836-0.567   c0.444-0.378,0.666-0.879,0.666-1.503c0-0.564-0.174-1.032-0.522-1.404c-0.348-0.372-0.924-0.708-1.728-1.008   c-2.1-0.792-3.15-1.938-3.15-3.438c0-0.948,0.36-1.73,1.08-2.349c0.72-0.618,1.656-0.927,2.808-0.927   c1.068,0,1.938,0.192,2.61,0.576l-0.432,1.278c-0.624-0.384-1.368-0.576-2.232-0.576c-0.744,0-1.326,0.198-1.746,0.594   c-0.336,0.336-0.504,0.744-0.504,1.224c0,0.54,0.186,0.99,0.558,1.35c0.348,0.312,0.948,0.642,1.8,0.99   c1.044,0.42,1.812,0.906,2.304,1.458C53.815,10.245,54.062,10.947,54.062,11.799z"/>
	<path fill="#FFFFFF" d="M59.756,7.587h-2.232v4.734c0,1.116,0.39,1.674,1.17,1.674c0.348,0,0.648-0.036,0.9-0.108l0.072,1.188   c-0.36,0.132-0.822,0.198-1.386,0.198c-0.732,0-1.299-0.219-1.701-0.657c-0.402-0.438-0.603-1.185-0.603-2.241V7.587h-1.332V6.399   h1.332V4.797l1.548-0.468v2.07h2.232V7.587z"/>
	<path fill="#FFFFFF" d="M68.891,10.683c0,1.332-0.366,2.424-1.098,3.276c-0.78,0.888-1.824,1.332-3.132,1.332   c-1.26,0-2.268-0.432-3.024-1.296c-0.708-0.84-1.062-1.896-1.062-3.168c0-1.332,0.366-2.424,1.098-3.276   c0.78-0.888,1.824-1.332,3.132-1.332c1.26,0,2.268,0.432,3.024,1.296C68.537,8.343,68.891,9.399,68.891,10.683z M67.289,10.737   c0-0.876-0.204-1.626-0.612-2.25c-0.468-0.732-1.116-1.098-1.944-1.098c-0.852,0-1.512,0.366-1.98,1.098   c-0.408,0.624-0.612,1.386-0.612,2.286c0,0.864,0.21,1.614,0.63,2.25c0.468,0.732,1.116,1.098,1.944,1.098   c0.816,0,1.464-0.372,1.944-1.116C67.079,12.357,67.289,11.601,67.289,10.737z"/>
	<path fill="#FFFFFF" d="M74.99,7.731c-0.156-0.024-0.336-0.036-0.54-0.036c-0.708,0-1.254,0.294-1.638,0.882   c-0.349,0.516-0.522,1.14-0.522,1.872v4.662h-1.548v-6.03c0-0.936-0.024-1.83-0.072-2.682h1.386l0.072,1.692h0.054   c0.192-0.576,0.507-1.032,0.945-1.368c0.438-0.335,0.915-0.504,1.431-0.504c0.168,0,0.312,0.012,0.432,0.036V7.731z"/>
	<path fill="#FFFFFF" d="M83.245,10.251c0,0.312-0.018,0.57-0.054,0.774h-5.976c0.024,1.02,0.324,1.794,0.9,2.322   c0.504,0.468,1.182,0.702,2.034,0.702c0.864,0,1.644-0.144,2.34-0.432l0.27,1.116c-0.78,0.348-1.728,0.522-2.844,0.522   c-1.296,0-2.319-0.396-3.069-1.188c-0.75-0.792-1.125-1.854-1.125-3.186c0-1.356,0.363-2.475,1.089-3.357   c0.726-0.882,1.701-1.323,2.925-1.323c1.235,0,2.166,0.474,2.79,1.422C83.004,8.355,83.245,9.231,83.245,10.251z M81.732,9.891   c0.012-0.66-0.126-1.218-0.414-1.674c-0.373-0.588-0.942-0.882-1.71-0.882c-0.72,0-1.296,0.288-1.728,0.864   c-0.349,0.468-0.564,1.032-0.648,1.692H81.732z"/>
</svg>