<?xml version="1.0" encoding="UTF-8"?>
<svg version="1.1" xmlns="http://www.w3.org/2000/svg" xmlns:xlink="http://www.w3.org/1999/xlink" width="130px" height="20px">
	<path fill="#FFFFFF" d="M52.375,4.11c0,0.3-0.096,0.543-0.288,0.729s-0.438,0.279-0.738,0.279c-0.288,0-0.525-0.096-0.711-0.288   c-0.186-0.192-0.279-0.432-0.279-0.72c0-0.288,0.096-0.528,0.288-0.72c0.192-0.192,0.432-0.288,0.72-0.288   c0.3,0,0.543,0.093,0.729,0.279S52.375,3.811,52.375,4.11z M52.158,15.432h-1.566V6.72h1.566V15.432z"/>
	<path fill="#FFFFFF" d="M62.37,6.756c0,1.068-0.312,1.926-0.936,2.574c-0.84,0.888-2.058,1.332-3.654,1.332   c-0.54,0-0.948-0.036-1.224-0.108v4.878h-1.548V3.444c0.888-0.156,1.872-0.234,2.952-0.234c1.488,0,2.604,0.331,3.348,0.99   C62.016,4.836,62.37,5.688,62.37,6.756z M60.804,6.828c0-0.768-0.252-1.359-0.756-1.773s-1.188-0.621-2.052-0.621   c-0.588,0-1.068,0.042-1.44,0.126v4.734c0.3,0.084,0.714,0.126,1.242,0.126c0.948,0,1.686-0.225,2.214-0.675   C60.54,8.295,60.804,7.656,60.804,6.828z"/>
	<path fill="#FFFFFF" d="M69.816,15.432h-1.422l-0.144-1.08h-0.036c-0.6,0.84-1.47,1.26-2.61,1.26   c-0.816,0-1.464-0.252-1.944-0.756c-0.444-0.468-0.666-1.044-0.666-1.728c0-1.056,0.444-1.863,1.332-2.421   s2.154-0.831,3.798-0.819v-0.18c0-1.344-0.648-2.016-1.944-2.016c-0.84,0-1.578,0.21-2.214,0.63l-0.36-1.044   c0.768-0.492,1.71-0.738,2.826-0.738c2.16,0,3.24,1.176,3.24,3.528v3.294C69.672,14.214,69.72,14.904,69.816,15.432z    M68.142,12.516v-1.53c-2.388-0.048-3.582,0.606-3.582,1.962c0,0.492,0.138,0.867,0.414,1.125   c0.276,0.258,0.624,0.387,1.044,0.387c0.516,0,0.966-0.15,1.35-0.45c0.336-0.264,0.57-0.594,0.702-0.99   C68.118,12.864,68.142,12.696,68.142,12.516z"/>
	<path fill="#FFFFFF" d="M79.119,15.432h-1.404l-0.072-1.476h-0.036c-0.564,1.104-1.524,1.656-2.88,1.656   c-1.056,0-1.929-0.408-2.619-1.224c-0.69-0.816-1.035-1.878-1.035-3.186c0-1.416,0.378-2.562,1.134-3.438   c0.72-0.816,1.614-1.224,2.682-1.224c1.224,0,2.076,0.432,2.556,1.296h0.036V2.67h1.566V13.2   C79.047,13.992,79.071,14.736,79.119,15.432z M77.48,11.814v-1.566c0-0.264-0.018-0.486-0.054-0.666   c-0.12-0.516-0.381-0.948-0.783-1.296s-0.885-0.522-1.449-0.522c-0.78,0-1.401,0.315-1.863,0.945   c-0.462,0.63-0.693,1.431-0.693,2.403c0,0.936,0.216,1.698,0.648,2.286c0.456,0.648,1.08,0.972,1.872,0.972   c0.684,0,1.248-0.264,1.692-0.792C77.271,13.086,77.48,12.498,77.48,11.814z"/>
</svg>