<?xml version="1.0" encoding="UTF-8"?>
<svg version="1.1" xmlns="http://www.w3.org/2000/svg" xmlns:xlink="http://www.w3.org/1999/xlink" width="130px" height="20px">
	<path fill="#FFFFFF" d="M56.655,2.979l-3.366,12.132h-1.62l-1.494-6.282c-0.396-1.656-0.66-2.981-0.792-3.978h-0.036   c-0.144,0.924-0.45,2.25-0.918,3.978l-1.674,6.282h-1.638L42.093,2.979h1.656l1.404,6.12c0.36,1.537,0.654,2.94,0.882,4.212h0.036   c0.144-0.876,0.468-2.286,0.972-4.23l1.602-6.102h1.584l1.458,6.12c0.408,1.716,0.69,3.108,0.846,4.176h0.036   c0.216-1.2,0.528-2.598,0.936-4.194l1.566-6.102H56.655z"/>
	<path fill="#FFFFFF" d="M63.675,15.111h-1.422l-0.144-1.08h-0.036c-0.6,0.84-1.47,1.26-2.61,1.26   c-0.816,0-1.464-0.252-1.944-0.756c-0.444-0.468-0.666-1.044-0.666-1.728c0-1.056,0.444-1.863,1.332-2.421   s2.154-0.831,3.798-0.819v-0.18c0-1.344-0.648-2.016-1.944-2.016c-0.84,0-1.578,0.21-2.214,0.63l-0.36-1.044   c0.768-0.492,1.71-0.738,2.826-0.738c2.16,0,3.24,1.176,3.24,3.528v3.294C63.531,13.893,63.579,14.583,63.675,15.111z    M62.001,12.195v-1.53c-2.388-0.048-3.582,0.606-3.582,1.962c0,0.492,0.138,0.867,0.414,1.125   c0.276,0.258,0.624,0.387,1.044,0.387c0.516,0,0.966-0.15,1.35-0.45c0.336-0.264,0.57-0.594,0.702-0.99   C61.977,12.543,62.001,12.375,62.001,12.195z"/>
	<path fill="#FFFFFF" d="M69.903,7.587h-2.232v4.734c0,1.116,0.39,1.674,1.17,1.674c0.348,0,0.648-0.036,0.9-0.108l0.072,1.188   c-0.36,0.132-0.822,0.198-1.386,0.198c-0.732,0-1.299-0.219-1.701-0.657c-0.402-0.438-0.603-1.185-0.603-2.241V7.587h-1.332V6.399   h1.332V4.797l1.548-0.468v2.07h2.232V7.587z"/>
	<path fill="#FFFFFF" d="M77.751,6.669l-0.342,1.206c-0.504-0.276-1.098-0.414-1.782-0.414c-0.948,0-1.692,0.33-2.232,0.99   c-0.516,0.601-0.774,1.375-0.774,2.322c0,0.984,0.276,1.773,0.828,2.367c0.552,0.594,1.266,0.891,2.142,0.891   c0.624,0,1.248-0.138,1.872-0.414l0.252,1.188c-0.66,0.312-1.464,0.468-2.412,0.468c-1.296,0-2.331-0.402-3.105-1.206   c-0.774-0.804-1.161-1.878-1.161-3.222c0-1.356,0.42-2.466,1.26-3.33c0.84-0.864,1.95-1.296,3.33-1.296   C76.491,6.219,77.199,6.369,77.751,6.669z"/>
	<path fill="#FFFFFF" d="M86.57,15.111h-1.566v-5.058c0-1.692-0.654-2.538-1.962-2.538c-0.48,0-0.909,0.147-1.287,0.441   s-0.645,0.669-0.801,1.125c-0.061,0.192-0.09,0.438-0.09,0.738v5.292h-1.566V2.349h1.566v5.382H80.9   c0.276-0.468,0.657-0.837,1.143-1.107s1.005-0.405,1.557-0.405c0.756,0,1.397,0.24,1.926,0.72   c0.696,0.648,1.044,1.632,1.044,2.952V15.111z"/>
</svg>