<?xml version="1.0" encoding="UTF-8"?>
<svg version="1.1" xmlns="http://www.w3.org/2000/svg" xmlns:xlink="http://www.w3.org/1999/xlink" width="130px" height="20px">
	<path fill="#FFFFFF" d="M42.313,11.799c0,0.996-0.348,1.812-1.044,2.448c-0.756,0.684-1.806,1.026-3.15,1.026   c-1.26,0-2.268-0.252-3.024-0.756l0.396-1.296c0.816,0.516,1.728,0.774,2.736,0.774c0.78,0,1.392-0.189,1.836-0.567   c0.444-0.378,0.666-0.879,0.666-1.503c0-0.564-0.174-1.032-0.522-1.404c-0.348-0.372-0.924-0.708-1.728-1.008   c-2.1-0.792-3.15-1.938-3.15-3.438c0-0.948,0.36-1.73,1.08-2.349c0.72-0.618,1.656-0.927,2.808-0.927   c1.068,0,1.938,0.192,2.61,0.576l-0.432,1.278c-0.624-0.384-1.368-0.576-2.232-0.576c-0.744,0-1.326,0.198-1.746,0.594   c-0.336,0.336-0.504,0.744-0.504,1.224c0,0.54,0.186,0.99,0.558,1.35c0.348,0.312,0.948,0.642,1.8,0.99   c1.044,0.42,1.812,0.906,2.304,1.458C42.067,10.245,42.313,10.947,42.313,11.799z"/>
	<path fill="#FFFFFF" d="M51.625,15.111h-1.386l-0.09-1.386h-0.054c-0.6,1.044-1.536,1.566-2.808,1.566   c-0.816,0-1.476-0.252-1.98-0.756c-0.636-0.648-0.954-1.649-0.954-3.006v-5.13h1.566v4.842c0,1.848,0.63,2.772,1.89,2.772   c0.479,0,0.918-0.156,1.314-0.468c0.335-0.264,0.576-0.588,0.72-0.972c0.096-0.24,0.144-0.51,0.144-0.81V6.399h1.566v6.336   C51.552,13.515,51.576,14.307,51.625,15.111z"/>
	<path fill="#FFFFFF" d="M62.372,10.629c0,1.488-0.396,2.658-1.188,3.51c-0.708,0.768-1.602,1.152-2.682,1.152   c-1.2,0-2.07-0.444-2.61-1.332h-0.036v4.698h-1.548V9.225c0-0.936-0.024-1.877-0.072-2.826h1.404l0.072,1.458h0.036   c0.66-1.092,1.662-1.638,3.006-1.638c1.056,0,1.923,0.408,2.601,1.224C62.033,8.259,62.372,9.321,62.372,10.629z M60.788,10.701   c0-0.912-0.21-1.667-0.63-2.268c-0.468-0.648-1.092-0.972-1.872-0.972c-0.54,0-1.026,0.18-1.458,0.54   c-0.432,0.36-0.72,0.822-0.864,1.386c-0.072,0.276-0.108,0.492-0.108,0.648v1.548c0,0.696,0.222,1.284,0.666,1.764   c0.444,0.48,1.014,0.72,1.71,0.72c0.804,0,1.431-0.309,1.881-0.927C60.562,12.522,60.788,11.709,60.788,10.701z"/>
	<path fill="#FFFFFF" d="M72.295,10.629c0,1.488-0.396,2.658-1.188,3.51c-0.708,0.768-1.602,1.152-2.682,1.152   c-1.2,0-2.07-0.444-2.61-1.332h-0.036v4.698h-1.548V9.225c0-0.936-0.024-1.877-0.072-2.826h1.404l0.072,1.458h0.036   c0.66-1.092,1.662-1.638,3.006-1.638c1.056,0,1.923,0.408,2.601,1.224C71.956,8.259,72.295,9.321,72.295,10.629z M70.711,10.701   c0-0.912-0.21-1.667-0.63-2.268c-0.468-0.648-1.092-0.972-1.872-0.972c-0.54,0-1.026,0.18-1.458,0.54   c-0.432,0.36-0.72,0.822-0.864,1.386c-0.072,0.276-0.108,0.492-0.108,0.648v1.548c0,0.696,0.222,1.284,0.666,1.764   c0.444,0.48,1.014,0.72,1.71,0.72c0.804,0,1.431-0.309,1.881-0.927C70.486,12.522,70.711,11.709,70.711,10.701z"/>
	<path fill="#FFFFFF" d="M81.956,10.683c0,1.332-0.366,2.424-1.098,3.276c-0.78,0.888-1.824,1.332-3.132,1.332   c-1.26,0-2.268-0.432-3.024-1.296c-0.708-0.84-1.062-1.896-1.062-3.168c0-1.332,0.366-2.424,1.098-3.276   c0.78-0.888,1.824-1.332,3.132-1.332c1.26,0,2.268,0.432,3.024,1.296C81.602,8.343,81.956,9.399,81.956,10.683z M80.354,10.737   c0-0.876-0.204-1.626-0.612-2.25c-0.468-0.732-1.116-1.098-1.944-1.098c-0.852,0-1.512,0.366-1.98,1.098   c-0.408,0.624-0.612,1.386-0.612,2.286c0,0.864,0.21,1.614,0.63,2.25c0.468,0.732,1.116,1.098,1.944,1.098   c0.816,0,1.464-0.372,1.944-1.116C80.144,12.357,80.354,11.601,80.354,10.737z"/>
	<path fill="#FFFFFF" d="M88.414,7.731c-0.156-0.024-0.336-0.036-0.54-0.036c-0.708,0-1.254,0.294-1.638,0.882   c-0.349,0.516-0.522,1.14-0.522,1.872v4.662h-1.548v-6.03c0-0.936-0.024-1.83-0.072-2.682h1.386l0.072,1.692h0.054   c0.192-0.576,0.507-1.032,0.945-1.368c0.438-0.335,0.915-0.504,1.431-0.504c0.168,0,0.312,0.012,0.432,0.036V7.731z"/>
	<path fill="#FFFFFF" d="M94.829,7.587h-2.232v4.734c0,1.116,0.39,1.674,1.17,1.674c0.348,0,0.648-0.036,0.9-0.108l0.072,1.188   c-0.36,0.132-0.822,0.198-1.386,0.198c-0.732,0-1.299-0.219-1.701-0.657c-0.402-0.438-0.603-1.185-0.603-2.241V7.587h-1.332V6.399   h1.332V4.797l1.548-0.468v2.07h2.232V7.587z"/>
</svg>