<?xml version="1.0" encoding="UTF-8"?>
<svg version="1.1" xmlns="http://www.w3.org/2000/svg" xmlns:xlink="http://www.w3.org/1999/xlink" width="130px" height="20px">
	<path fill="#FFFFFF" d="M52.068,3.789c0,0.3-0.096,0.543-0.288,0.729s-0.438,0.279-0.738,0.279c-0.288,0-0.525-0.096-0.711-0.288   c-0.186-0.192-0.279-0.432-0.279-0.72c0-0.288,0.096-0.528,0.288-0.72c0.192-0.192,0.432-0.288,0.72-0.288   c0.3,0,0.543,0.093,0.729,0.279S52.068,3.489,52.068,3.789z M51.852,15.111h-1.566V6.399h1.566V15.111z"/>
	<path fill="#FFFFFF" d="M61.343,6.435c0,1.068-0.312,1.926-0.936,2.574c-0.84,0.888-2.058,1.332-3.654,1.332   c-0.54,0-0.948-0.036-1.224-0.108v4.878h-1.548V3.123c0.888-0.156,1.872-0.234,2.952-0.234c1.488,0,2.604,0.331,3.348,0.99   C60.989,4.515,61.343,5.367,61.343,6.435z M59.777,6.507c0-0.768-0.252-1.359-0.756-1.773s-1.188-0.621-2.052-0.621   c-0.588,0-1.068,0.042-1.44,0.126v4.734c0.3,0.084,0.714,0.126,1.242,0.126c0.948,0,1.686-0.225,2.214-0.675   C59.513,7.974,59.777,7.335,59.777,6.507z"/>
	<path fill="#FFFFFF" d="M70.221,10.683c0,1.332-0.366,2.424-1.098,3.276c-0.78,0.888-1.824,1.332-3.132,1.332   c-1.26,0-2.268-0.432-3.024-1.296c-0.708-0.84-1.062-1.896-1.062-3.168c0-1.332,0.366-2.424,1.098-3.276   c0.78-0.888,1.824-1.332,3.132-1.332c1.26,0,2.268,0.432,3.024,1.296C69.867,8.343,70.221,9.399,70.221,10.683z M68.619,10.737   c0-0.876-0.204-1.626-0.612-2.25c-0.468-0.732-1.116-1.098-1.944-1.098c-0.852,0-1.512,0.366-1.98,1.098   c-0.408,0.624-0.612,1.386-0.612,2.286c0,0.864,0.21,1.614,0.63,2.25c0.468,0.732,1.116,1.098,1.944,1.098   c0.816,0,1.464-0.372,1.944-1.116C68.409,12.357,68.619,11.601,68.619,10.737z"/>
	<path fill="#FFFFFF" d="M79.714,15.111H78.31l-0.072-1.476h-0.036c-0.564,1.104-1.524,1.656-2.88,1.656   c-1.056,0-1.929-0.408-2.619-1.224c-0.69-0.816-1.035-1.878-1.035-3.186c0-1.416,0.378-2.562,1.134-3.438   c0.72-0.816,1.614-1.224,2.682-1.224c1.224,0,2.076,0.432,2.556,1.296h0.036V2.349h1.566v10.53   C79.642,13.671,79.666,14.415,79.714,15.111z M78.076,11.493V9.927c0-0.264-0.018-0.486-0.054-0.666   c-0.12-0.516-0.381-0.948-0.783-1.296s-0.885-0.522-1.449-0.522c-0.78,0-1.401,0.315-1.863,0.945   c-0.462,0.63-0.693,1.431-0.693,2.403c0,0.936,0.216,1.698,0.648,2.286c0.456,0.648,1.08,0.972,1.872,0.972   c0.684,0,1.248-0.264,1.692-0.792C77.866,12.765,78.076,12.177,78.076,11.493z"/>
</svg>