<?xml version="1.0" encoding="UTF-8"?>
<svg version="1.1" xmlns="http://www.w3.org/2000/svg" xmlns:xlink="http://www.w3.org/1999/xlink" width="130px" height="20px">
	<path fill="#FFFFFF" d="M62.461,15.111h-1.512l-0.288-5.328c-0.144-2.459-0.21-4.194-0.198-5.202h-0.054   c-0.408,1.452-0.9,2.982-1.476,4.59l-2.106,5.868h-1.17l-1.926-5.76c-0.588-1.74-1.044-3.306-1.368-4.698h-0.036   c-0.048,1.752-0.126,3.528-0.234,5.328l-0.324,5.202h-1.476l0.846-12.132h1.962l2.016,5.85c0.468,1.344,0.87,2.707,1.206,4.086   h0.054c0.336-1.344,0.756-2.706,1.26-4.086l2.106-5.85h1.98L62.461,15.111z"/>
	<path fill="#FFFFFF" d="M71.193,15.111h-1.422l-0.144-1.08h-0.036c-0.6,0.84-1.47,1.26-2.61,1.26   c-0.816,0-1.464-0.252-1.944-0.756c-0.444-0.468-0.666-1.044-0.666-1.728c0-1.056,0.444-1.863,1.332-2.421   s2.154-0.831,3.798-0.819v-0.18c0-1.344-0.648-2.016-1.944-2.016c-0.84,0-1.578,0.21-2.214,0.63l-0.36-1.044   c0.768-0.492,1.71-0.738,2.826-0.738c2.16,0,3.24,1.176,3.24,3.528v3.294C71.049,13.893,71.097,14.583,71.193,15.111z    M69.519,12.195v-1.53c-2.388-0.048-3.582,0.606-3.582,1.962c0,0.492,0.138,0.867,0.414,1.125   c0.276,0.258,0.624,0.387,1.044,0.387c0.516,0,0.966-0.15,1.35-0.45c0.336-0.264,0.57-0.594,0.702-0.99   C69.495,12.543,69.519,12.375,69.519,12.195z"/>
	<path fill="#FFFFFF" d="M79.883,6.669l-0.342,1.206c-0.504-0.276-1.098-0.414-1.782-0.414c-0.948,0-1.692,0.33-2.232,0.99   c-0.516,0.601-0.774,1.375-0.774,2.322c0,0.984,0.276,1.773,0.828,2.367c0.552,0.594,1.266,0.891,2.142,0.891   c0.624,0,1.248-0.138,1.872-0.414l0.252,1.188c-0.66,0.312-1.464,0.468-2.412,0.468c-1.296,0-2.331-0.402-3.105-1.206   c-0.774-0.804-1.161-1.878-1.161-3.222c0-1.356,0.42-2.466,1.26-3.33c0.84-0.864,1.95-1.296,3.33-1.296   C78.624,6.219,79.331,6.369,79.883,6.669z"/>
</svg>