<?xml version="1.0" encoding="UTF-8"?>
<svg version="1.1" xmlns="http://www.w3.org/2000/svg" xmlns:xlink="http://www.w3.org/1999/xlink" width="130px" height="20px">
	<path fill="#FFFFFF" d="M41.596,4.11c0,0.3-0.096,0.543-0.288,0.729s-0.438,0.279-0.738,0.279c-0.288,0-0.525-0.096-0.711-0.288   c-0.186-0.192-0.279-0.432-0.279-0.72c0-0.288,0.096-0.528,0.288-0.72c0.192-0.192,0.432-0.288,0.72-0.288   c0.3,0,0.543,0.093,0.729,0.279S41.596,3.811,41.596,4.11z M41.379,15.432h-1.566V6.72h1.566V15.432z"/>
	<path fill="#FFFFFF" d="M51.591,6.756c0,1.068-0.312,1.926-0.936,2.574c-0.84,0.888-2.058,1.332-3.654,1.332   c-0.54,0-0.948-0.036-1.224-0.108v4.878h-1.548V3.444c0.888-0.156,1.872-0.234,2.952-0.234c1.488,0,2.604,0.331,3.348,0.99   C51.237,4.836,51.591,5.688,51.591,6.756z M50.025,6.828c0-0.768-0.252-1.359-0.756-1.773s-1.188-0.621-2.052-0.621   c-0.588,0-1.068,0.042-1.44,0.126v4.734c0.3,0.084,0.714,0.126,1.242,0.126c0.948,0,1.686-0.225,2.214-0.675   C49.761,8.295,50.025,7.656,50.025,6.828z"/>
	<path fill="#FFFFFF" d="M60.855,15.432H59.29v-5.058c0-1.692-0.654-2.538-1.962-2.538c-0.48,0-0.909,0.147-1.287,0.441   s-0.645,0.669-0.801,1.125c-0.061,0.192-0.09,0.438-0.09,0.738v5.292h-1.566V2.67h1.566v5.382h0.036   c0.276-0.468,0.657-0.837,1.143-1.107s1.005-0.405,1.557-0.405c0.756,0,1.397,0.24,1.926,0.72   c0.696,0.648,1.044,1.632,1.044,2.952V15.432z"/>
	<path fill="#FFFFFF" d="M71.319,11.004c0,1.332-0.366,2.424-1.098,3.276c-0.78,0.888-1.824,1.332-3.132,1.332   c-1.26,0-2.268-0.432-3.024-1.296c-0.708-0.84-1.062-1.896-1.062-3.168c0-1.332,0.366-2.424,1.098-3.276   c0.78-0.888,1.824-1.332,3.132-1.332c1.26,0,2.268,0.432,3.024,1.296C70.965,8.664,71.319,9.72,71.319,11.004z M69.717,11.058   c0-0.876-0.204-1.626-0.612-2.25c-0.468-0.732-1.116-1.098-1.944-1.098c-0.852,0-1.512,0.366-1.98,1.098   c-0.408,0.624-0.612,1.386-0.612,2.286c0,0.864,0.21,1.614,0.63,2.25c0.468,0.732,1.116,1.098,1.944,1.098   c0.816,0,1.464-0.372,1.944-1.116C69.507,12.678,69.717,11.922,69.717,11.058z"/>
	<path fill="#FFFFFF" d="M80.801,15.432h-1.566v-5.058c0-1.704-0.654-2.556-1.962-2.556c-0.624,0-1.143,0.237-1.557,0.711   s-0.621,1.023-0.621,1.647v5.256h-1.566V9.078c0-0.72-0.024-1.506-0.072-2.358h1.386l0.09,1.404h0.036   c0.24-0.444,0.588-0.81,1.044-1.098c0.528-0.324,1.122-0.486,1.782-0.486c0.768,0,1.416,0.24,1.944,0.72   c0.708,0.648,1.062,1.626,1.062,2.934V15.432z"/>
	<path fill="#FFFFFF" d="M90.473,10.572c0,0.312-0.018,0.57-0.054,0.774h-5.976c0.024,1.02,0.324,1.794,0.9,2.322   c0.504,0.468,1.182,0.702,2.034,0.702c0.864,0,1.644-0.144,2.34-0.432l0.27,1.116c-0.78,0.348-1.728,0.522-2.844,0.522   c-1.296,0-2.319-0.396-3.069-1.188c-0.75-0.792-1.125-1.854-1.125-3.186c0-1.356,0.363-2.475,1.089-3.357   c0.726-0.882,1.701-1.323,2.925-1.323c1.235,0,2.166,0.474,2.79,1.422C90.232,8.676,90.473,9.552,90.473,10.572z M88.96,10.212   c0.012-0.66-0.126-1.218-0.414-1.674c-0.373-0.588-0.942-0.882-1.71-0.882c-0.72,0-1.296,0.288-1.728,0.864   c-0.349,0.468-0.564,1.032-0.648,1.692H88.96z"/>
</svg>